<svg xmlns="http://www.w3.org/2000/svg" width="533.376" height="575.158" viewBox="0 0 533.376 575.158">
  <path id="Caminho_5" data-name="Caminho 5" d="M-17.566,367.794c.187,2.8-.181,28.512,0,30.981.2,46.395-.192,81.109.058,106.116.027,2.724-.062,5.463,0,8.171.567,24.885-2.521,42.222,5.305,47.379,37.478,25.04,219.37-187.806,315.8-192.646,105.07,14.077,232.74-10.672,209.261-107.245C465.335,65.057,404.255,171.39,313.4,75.294S121.394-12.489,121.394-12.489H-17.69l.124,250.386Z" transform="translate(515.686 562.488) rotate(180)" fill="#ff6e00"/>
  <path id="Caminho_10" data-name="Caminho 10" d="M50.627.828c28.767,0,30.468,27.746,44.586,50.983S79.394,103.9,50.627,103.9,12.811,94.32,5.657,51.81,21.859.828,50.627.828Z" transform="translate(386.534 517.236) rotate(-71)" fill="#e86409"/>
  <path id="Caminho_11" data-name="Caminho 11" d="M17.605.828c8.238,0,8.725,7.945,12.768,14.6s-4.53,14.916-12.768,14.916S6.776,27.6,4.728,15.427,9.367.828,17.605.828Z" transform="translate(183.794 251.668) rotate(42)" fill="#e86409"/>
  <path id="Caminho_12" data-name="Caminho 12" d="M41.435.828c23.053,0,24.415,22.234,35.728,40.855S64.487,83.423,41.435,83.423,11.131,75.747,5.4,41.682,18.382.828,41.435.828Z" transform="matrix(0.946, 0.326, -0.326, 0.946, 188.781, 290.642)" fill="#e86409"/>
</svg>
