<svg xmlns="http://www.w3.org/2000/svg" width="530.185" height="591.91" viewBox="0 0 530.185 591.91">
  <path id="Caminho_4" data-name="Caminho 4" d="M.072,584.156C144.006,192.068,251.886,394.04,359.314,410.024c105.07,15.633,177.028-11.852,153.549-119.1C465.335,73.82,404.255,191.909,313.4,85.19S121.381,1.444,121.381,1.444L.072-1.351V584.156Z" transform="translate(12.866 7.754)" fill="#ff6e00"/>
  <path id="Caminho_6" data-name="Caminho 6" d="M39,.828C60.539.828,61.812,21.6,72.383,39S60.539,78,39,78,10.686,70.828,5.33,39,17.461.828,39,.828Z" transform="translate(305.866 268.754)" fill="#e86409"/>
  <path id="Caminho_7" data-name="Caminho 7" d="M17.605.828c8.238,0,8.725,7.945,12.768,14.6s-4.53,14.916-12.768,14.916S6.776,27.6,4.728,15.427,9.367.828,17.605.828Z" transform="translate(258.388 229.34)" fill="#e86409"/>
  <path id="Caminho_13" data-name="Caminho 13" d="M62.035.828c35.86,0,37.979,34.587,55.578,63.552s-34.848,36.906-54.58,43.927-35.361,27.07-44.279-25.92S26.175.828,62.035.828Z" transform="translate(135.41 2.288) rotate(99)" fill="#e86409"/>
  <path id="Caminho_14" data-name="Caminho 14" d="M24.663.828C37.289.828,38.035,13.005,44.232,23.2S37.289,46.065,24.663,46.065,8.066,41.861,4.926,23.2,12.037.828,24.663.828Z" transform="translate(173.552 73.292) rotate(81)" fill="#e86409"/>
</svg>
